<svg width="16" height="20" viewBox="0 0 16 20" fill="none" xmlns="http://www.w3.org/2000/svg">
<path d="M0.778809 19.4354V0.262207H8.69899C10.1345 0.262207 11.3734 0.543065 12.4157 1.10478C13.4642 1.66025 14.2725 2.43729 14.8404 3.4359C15.4084 4.42826 15.6923 5.5829 15.6923 6.89981C15.6923 8.22296 15.4021 9.38072 14.8217 10.3731C14.2475 11.3592 13.4268 12.1238 12.3595 12.6668C11.2922 13.2097 10.0253 13.4812 8.55857 13.4812H3.67164V9.83009H7.69727C8.39629 9.83009 8.97985 9.70838 9.44795 9.46497C9.92229 9.22157 10.2812 8.88142 10.5246 8.44453C10.768 8.0014 10.8897 7.48649 10.8897 6.89981C10.8897 6.30689 10.768 5.7951 10.5246 5.36445C10.2812 4.92756 9.92229 4.59054 9.44795 4.35337C8.97361 4.1162 8.39005 3.99761 7.69727 3.99761H5.41296V19.4354H0.778809Z" fill="black"/>
</svg>
