<svg width="16" height="20" viewBox="0 0 16 20" fill="none" xmlns="http://www.w3.org/2000/svg">
<path d="M0.436523 19.4354V0.262207H8.35671C9.7922 0.262207 11.0311 0.52122 12.0734 1.03925C13.1219 1.55103 13.9302 2.2875 14.4981 3.24866C15.0661 4.20358 15.3501 5.33637 15.3501 6.64704C15.3501 7.97643 15.0598 9.1061 14.4794 10.0361C13.899 10.9598 13.0751 11.665 12.0079 12.1518C10.9406 12.6324 9.67674 12.8727 8.21628 12.8727H3.20765V9.22157H7.35498C8.054 9.22157 8.63756 9.13107 9.10566 8.95007C9.58 8.76283 9.93888 8.48197 10.1823 8.1075C10.4257 7.72678 10.5474 7.23996 10.5474 6.64704C10.5474 6.05411 10.4257 5.56417 10.1823 5.17722C9.93888 4.78401 9.58 4.49067 9.10566 4.2972C8.63132 4.09747 8.04776 3.99761 7.35498 3.99761H5.07067V19.4354H0.436523ZM11.2308 10.6727L16.0054 19.4354H10.95L6.269 10.6727H11.2308Z" fill="black"/>
</svg>
