<svg width="16" height="20" viewBox="0 0 16 20" fill="none" xmlns="http://www.w3.org/2000/svg">
<path d="M10.916 6.01035C10.8536 5.32381 10.5758 4.79018 10.0828 4.40947C9.59597 4.02251 8.90007 3.82903 7.99508 3.82903C7.39592 3.82903 6.89662 3.90704 6.49717 4.06307C6.09773 4.21911 5.79815 4.43443 5.59843 4.70905C5.39871 4.97742 5.29573 5.28637 5.28948 5.63588C5.277 5.92298 5.33317 6.17575 5.458 6.39419C5.58907 6.61264 5.7763 6.80612 6.01972 6.97463C6.26937 7.1369 6.56895 7.28045 6.91846 7.40528C7.26797 7.53011 7.66117 7.63933 8.09806 7.73295L9.74576 8.10742C10.6944 8.31339 11.5308 8.588 12.2548 8.93127C12.985 9.27454 13.5966 9.68335 14.0897 10.1577C14.589 10.632 14.9666 11.1781 15.2225 11.796C15.4784 12.4139 15.6094 13.1067 15.6157 13.8744C15.6094 15.0852 15.3036 16.1243 14.6982 16.9919C14.0928 17.8594 13.2222 18.5241 12.0862 18.986C10.9566 19.4478 9.59285 19.6788 7.99508 19.6788C6.39107 19.6788 4.99302 19.4385 3.80094 18.9579C2.60885 18.4773 1.68203 17.7471 1.02045 16.7672C0.358874 15.7873 0.0187238 14.5484 0 13.0505H4.43755C4.475 13.6684 4.64039 14.1833 4.93373 14.5952C5.22707 15.0072 5.62963 15.3192 6.14142 15.5314C6.65945 15.7436 7.25861 15.8497 7.93891 15.8497C8.56304 15.8497 9.09354 15.7655 9.53043 15.597C9.97357 15.4284 10.3137 15.1944 10.5509 14.8948C10.7881 14.5952 10.9098 14.252 10.916 13.865C10.9098 13.503 10.7974 13.1941 10.579 12.9382C10.3605 12.676 10.0235 12.4514 9.56788 12.2641C9.11851 12.0706 8.54431 11.8928 7.84529 11.7305L5.84184 11.2624C4.18166 10.8817 2.87411 10.2669 1.91919 9.41809C0.964278 8.56304 0.48994 7.4084 0.496182 5.95418C0.48994 4.76834 0.808246 3.72917 1.4511 2.83666C2.09395 1.94416 2.98333 1.24826 4.11925 0.748954C5.25516 0.249651 6.55022 0 8.00444 0C9.48987 0 10.7787 0.252772 11.8709 0.758315C12.9694 1.25762 13.8213 1.95976 14.4267 2.86475C15.0321 3.76973 15.3411 4.81827 15.3536 6.01035H10.916Z" fill="black"/>
</svg>
